<?xml version="1.0" standalone="no"?><!DOCTYPE svg PUBLIC "-//W3C//DTD SVG 1.1//EN" "http://www.w3.org/Graphics/SVG/1.1/DTD/svg11.dtd"><svg class="icon" width="200px" height="200.00px" viewBox="0 0 1024 1024" version="1.1" xmlns="http://www.w3.org/2000/svg"><path fill="#ffffff" d="M876.1 505.3c-8.5 0-16.6 1.3-24.2 3.6l-46-86.5c8.8-10.8 14-24.5 14-39.5 0-34.5-27.9-62.6-62.4-62.6-20.4 0-38.5 9.8-49.8 25L484 275.1c0.5-3.1 0.8-6.3 0.8-9.5 0-34.5-27.9-62.6-62.4-62.6s-62.5 28-62.5 62.6c0 4.8 0.6 9.4 1.6 13.9l-141.4 60.4c-14.6-24.5-41.3-40.9-71.8-40.9-46.3 0-83.8 37.5-83.8 83.9 0 46.4 37.5 84 83.8 84 14.8 0 28.7-3.9 40.7-10.6l138.3 170.5c-8.3 17.5-13 37.1-13 57.9 0 74.6 60.4 135.2 134.9 135.2 65.9 0 120.7-47.4 132.5-110.1h0.1L802.3 629c14.1 26.3 41.9 44.2 73.8 44.2 46.2 0 83.7-37.6 83.7-83.9 0-46.4-37.5-84-83.7-84z m-645.4-108c0.6-3.8 1-7.8 1.2-11.7l144.3-78.2c11.4 12.7 27.9 20.7 46.2 20.7 16.8 0 31.9-6.7 43.2-17.4l37.3 12.4c-86.6 5.7-155.1 77.6-155.1 165.8 0 15.6 2.2 30.7 6.2 44.9L230.7 397.3z m139.9 177.4v-1.9c0.3 0.4 0.5 0.9 0.7 1.3-0.2 0.2-0.4 0.4-0.7 0.6z m186.2 28.4c-24.6-32.6-63.6-53.9-107.5-53.9-13.2 0-25.9 2-37.9 5.5-12.2-19-19.3-41.6-19.3-65.8 0-67.5 54.6-122.2 121.9-122.2 67.2 0 121.8 54.7 121.8 122.2-0.2 52.4-33 96.8-79 114.2z m240.1-41.3L595 633.9v0.1c50.5-28.5 84.8-82.7 84.8-145 0-50.7-22.6-95.9-58.2-126.4l73.6 24.5c2.1 32.6 29.2 58.4 62.3 58.4 5 0 9.9-0.7 14.6-1.8L820 527c-10.4 9.4-18.4 21.3-23.1 34.8z m0 0" /></svg>