<?xml version="1.0" standalone="no"?><!DOCTYPE svg PUBLIC "-//W3C//DTD SVG 1.1//EN" "http://www.w3.org/Graphics/SVG/1.1/DTD/svg11.dtd"><svg class="icon" width="200px" height="200.00px" viewBox="0 0 1024 1024" version="1.1" xmlns="http://www.w3.org/2000/svg"><path fill="#ffffff" d="M817.7 690.4c-3.2-2.6-6.8-7.1-7.9-16.7C868.3 637.4 1005 546.8 945.9 527c-20.4-6.6-85.3-8.2-169.8-6.6l3.7 4c-32.3 32.3-103.1 36.5-137.8 36.5-11.1 0-18.8-0.5-19.9-0.5H348.6v-8.7c-14.8-0.3-182.7-0.7-197.6 0.3-30.2 2.1-57.4 58-73.1 97.8L70 671.3c-3.7 10.8-5.8 17.8-5.8 17.8h143.3m55.4 0.2h128.7m55.5 0h129.3m55.4 0h129M304.2 431.7c44.7-4 57.8 93 42.6 118.1l287.6-11.7c1.6 0.3 89.5-5.6 129.8-39.2l-103.8-94H306.3L210.1 335l-21.7-4.7 76.8 74.6h-76.8s0 31 115.8 26.8z m337.4 4.2l55.9 46.9h-86.8l12.4-46.9h18.5z m-76 0h45l-12.5 46.9h-45l12.5-46.9z m-15.7 0l-12.5 46.9h-54.2l12.4-46.9h54.3z m-89.7 0h23.1l-12.5 46.9h-62c-6.1-52.5 51.4-46.9 51.4-46.9z m0 0" /></svg>