<?xml version="1.0" standalone="no"?><!DOCTYPE svg PUBLIC "-//W3C//DTD SVG 1.1//EN" "http://www.w3.org/Graphics/SVG/1.1/DTD/svg11.dtd"><svg class="icon" width="200px" height="200.00px" viewBox="0 0 1024 1024" version="1.1" xmlns="http://www.w3.org/2000/svg"><path fill="#ffffff" d="M740.7 887.7c-21.5 0-42.5-7-59.7-19.9l-33.5-25.4c-11.3-8.6-26.9-8.6-37.8 0l-33.5 25.4c-35.5 26.5-84.3 26.5-119.4 0l-33.6-25.4c-11.3-8.6-26.9-8.6-37.8 0l-33.5 25.4c-35.5 26.5-84.3 26.5-119.4 0l-33.6-25.4c-11.3-8.6-26.9-8.6-37.8 0l-43.7 33.2c-15 11.4-36 8.2-47.4-6.6-11.3-14.8-8.2-35.9 6.6-47.2l43.7-33.2c35.5-26.5 84.3-26.5 119.4 0l33.6 25.4c11.3 8.6 26.9 8.6 37.8 0l33.6-25.4c35.5-26.5 84.3-26.5 119.4 0l33.5 25.4c11.3 8.6 26.9 8.6 37.8 0l33.6-25.4c35.5-26.5 84.3-26.5 119.4 0L722 814c11.3 8.6 26.9 8.6 37.8 0l33.5-25.4c35.5-26.5 84.3-26.5 119.4 0l33.6 25.4c14.8 11.3 17.6 32.4 6.6 47.2-11.3 14.8-32.4 17.6-47.2 6.6l-33.5-25.4c-11.3-8.6-26.9-8.6-37.8 0l-33.5 25.4c-17.7 12.9-38.7 19.9-60.2 19.9z m0 0M740.7 759c-21.5 0-42.5-7-59.7-19.9l-33.5-25.4c-11.3-8.6-26.9-8.6-37.8 0l-33.5 25.4c-35.5 26.5-84.3 26.5-119.4 0l-33.6-25.4c-11.3-8.6-26.9-8.6-37.8 0l-33.5 25.4c-35.5 26.5-84.3 26.5-119.4 0l-33.6-25.4c-11.3-8.6-26.9-8.6-37.8 0l-43.7 33.2c-14.8 11.3-35.9 8.2-47.2-6.6-11.3-14.8-8.2-35.9 6.6-47.2l43.7-33.2c35.5-26.5 84.3-26.5 119.4 0l33.6 25.4c11.3 8.6 26.9 8.6 37.8 0l33.6-25.4c35.5-26.5 84.3-26.5 119.4 0l33.5 25.4c11.3 8.6 26.9 8.6 37.8 0l33.6-25.4c35.5-26.5 84.3-26.5 119.4 0l33.5 25.4c11.3 8.6 26.9 8.6 37.8 0l33.5-25.4c35.5-26.5 84.3-26.5 119.4 0l33.6 25.4c14.8 11.3 17.6 32.4 6.6 47.2-11.3 14.8-32.4 17.6-47.2 6.6l-33.5-25.4c-11.3-8.6-26.9-8.6-37.8 0L801 739.1C783.2 752 762.2 759 740.7 759zM288.9 588.5c-21.5 0-39-17.6-39-39v-11.7c0-21.5 17.6-39 39-39 21.5 0 39 17.6 39 39v11.7c0 21.4-17.5 39-39 39z m16.8-141.6c-5.9 0-11.7-1.2-17.6-4.3-19.1-9.8-26.9-33.2-17.6-52.3l7-12.9c10.9-18.3 35.1-24.6 53.4-13.7 18.3 10.9 24.6 35.1 13.7 53.4-1.6 2.3-3.1 5.1-4.3 7.8-6.5 13.8-20.6 22-34.6 22z m110.4-85.1c-18.3 0-34.3-12.9-38.2-31.2-4.3-21.1 9.4-41.7 30.8-46 4.7-0.8 9.4-1.6 14.4-2.3 21.5-2.7 41 12.5 43.7 33.9 2.7 21.5-12.5 41-33.9 43.7-2.7 0.4-5.9 0.8-8.6 1.6-2.7 0.3-5.5 0.3-8.2 0.3z m444.8-3.1h-11.7c-21.5 0-39-17.6-39-39 0-21.5 17.6-39 39-39h11.7c21.5 0 39 17.6 39 39 0 21.5-17.6 39-39 39z m-144.4 0h-11.7c-21.5 0-39-17.6-39-39 0-21.5 17.6-39 39-39h11.7c21.5 0 39 17.6 39 39 0 21.5-17.5 39-39 39z m-144.3 0h-11.7c-21.5 0-39-17.6-39-39 0-21.5 17.6-39 39-39h11.7c21.5 0 39 17.6 39 39 0 21.5-17.6 39-39 39z m0 0M382.5 518.3v68.3c6.6-0.8 13.7-1.6 20.3-1.6 19.9 0 39.4 3.9 57.7 11.3v-78c0-17.2 14-31.2 31.2-31.2h467.8v-78H491.8c-60.1-0.1-109.3 49.1-109.3 109.2z m25-382.4c-164.3 0-297.7 133.4-297.7 297.7v167.8c21.1-10.5 44.5-16 68.7-16 3.1 0 6.2 0 9.4 0.4V434c0-121.3 98.7-219.7 219.7-219.7H960v-78l-552.5-0.4z m0 0" /></svg>