<?xml version="1.0" standalone="no"?><!DOCTYPE svg PUBLIC "-//W3C//DTD SVG 1.1//EN" "http://www.w3.org/Graphics/SVG/1.1/DTD/svg11.dtd"><svg class="icon" width="200px" height="200.00px" viewBox="0 0 1024 1024" version="1.1" xmlns="http://www.w3.org/2000/svg"><path fill="#ffffff" d="M64.2 603v52.5L182.3 813h708v-70.8l70-105v-51.7H783.2l-32.9 32.9V498h-406v140H326l-34.2-22.8V445.5h52.5V393H116.8v210H64.2z m633.6 35h-301v-87.5h301V638zM544.3 477.1c70.4 0 127.6-57.1 127.6-127.5S614.8 222 544.4 222s-127.6 57.1-127.6 127.5v0.1c0 70.3 57.1 127.4 127.5 127.5z m58.6-44.8c-34.6 26.5-82.6 26.5-117.1 0-2.2-1.7-2.6-4.8-1-7l38.8-51c1.7-2.2 4.8-2.6 7-1 8.1 6.2 19.2 6.2 27.3 0 2.2-1.7 5.4-1.3 7 1l38.8 51c1.8 2.2 1.4 5.3-0.8 7zM555.6 319l26.4-58.5c1.1-2.5 4.1-3.6 6.6-2.5 34.6 15.7 56.9 50.1 57 88.2 0 2.1 0 4.1-0.3 6.1v0.8c-0.2 2.6-2.4 4.7-5 4.7h-0.6l-63.8-4.6c-2.8-0.2-4.9-2.6-4.7-5.4v-1.6c0-8.9-5.2-16.9-13.3-20.6-2.4-1.2-3.4-4.2-2.3-6.6z m6.3 30.5c0 9.7-7.9 17.6-17.6 17.6-9.7 0-17.6-7.9-17.6-17.6 0-9.7 7.9-17.6 17.6-17.6 9.7 0 17.6 7.9 17.6 17.6z m-113.7 8.2c-2.6 0-4.8-2-5-4.7v-0.8c0-2-0.3-4-0.3-6.1 0.1-38 22.3-72.5 56.9-88.2 2.5-1.1 5.5 0 6.6 2.5l26.4 58.5c1.1 2.5 0 5.5-2.5 6.6-8.1 3.7-13.3 11.7-13.3 20.6v1.6c0.2 2.8-1.9 5.2-4.6 5.4l-63.6 4.6h-0.6z m0 0" /></svg>