<?xml version="1.0" standalone="no"?><!DOCTYPE svg PUBLIC "-//W3C//DTD SVG 1.1//EN" "http://www.w3.org/Graphics/SVG/1.1/DTD/svg11.dtd"><svg class="icon" width="200px" height="200.00px" viewBox="0 0 1024 1024" version="1.1" xmlns="http://www.w3.org/2000/svg"><path fill="#ffffff" d="M439.9 806.4c0 67 54.5 121.5 121.5 121.5S683 873.5 683 806.4s-54.5-121.5-121.5-121.5-121.6 54.5-121.6 121.5z m97.2-24.3h48.6v48.6h-48.6v-48.6zM780.2 198.7c36.8 0 72.5 10.9 101.9 28.7-36-76.8-113.3-129.2-199.1-129.2H488.5c-85.8 0-163.1 52.4-199.1 129.2 29.4-17.8 65.1-28.7 101.9-28.7h388.9zM780.2 247.3h-389c-80.4 0-147.5 65.4-147.5 145.9S310.8 539 391.3 539h48.6c51.5 0 98.2-26.9 125-72l20.9-35.2 20.9 35.2c26.8 45.1 73.5 72 125 72h48.6c80.4 0 147.5-65.4 147.5-145.9s-67.2-145.8-147.6-145.8zM685.7 581.8c-38.7-9.4-73.5-30.3-100-60.9-26.5 30.6-61.3 51.4-100 60.9 22.3 33.3 58.8 54.5 100 54.5s77.8-21.3 100-54.5zM367 855.1h32.2c-4.7-15.5-7.9-31.6-7.9-48.6s3.3-33.1 7.9-48.6H367c-94 0-171.8-76.2-171.8-170.2V539H97.9v48.6c0 147.7 121.4 267.5 269.1 267.5zM97.9 441.8h97.2v48.6H97.9zM97.9 98.2h97.2v295H97.9z" /></svg>