<?xml version="1.0" standalone="no"?><!DOCTYPE svg PUBLIC "-//W3C//DTD SVG 1.1//EN" "http://www.w3.org/Graphics/SVG/1.1/DTD/svg11.dtd"><svg class="icon" width="200px" height="200.00px" viewBox="0 0 1024 1024" version="1.1" xmlns="http://www.w3.org/2000/svg"><path fill="#ffffff" d="M440.5 576.2c103.7 0 187.8-84 187.8-187.8 0-15.1-1.9-29.7-5.3-43.9-1.4-0.9-2.8-1.9-4.3-2.8-29.6 69.3-129 77.1-171.3 77.1-7.4 0-12.8-0.2-14.8-0.4-2.1 0.1-7.3 0.4-14.8 0.4-38.6 0-125.1-6.5-162.3-60.6-1.6 9.9-2.6 19.9-2.6 30.2-0.2 103.7 83.9 187.8 187.6 187.8z m0 0M426.7 921.9l-52.4-105-3.3-6.4 4.5-5.7 39-49.1-38.2-38.2-7.9-8 41.7-41.7-86.1-59.3s9.5-6.3-114.9 42.4C84.9 699.7 95.9 813 97.5 819.3c1.5 6.3-1 108.5-1 108.5l330.2-5.9z m0 0M429.6 754.8l-45.3 57 54.8 109.8 1.3 2.7 8.5-17.1 47.7-95.4-45.3-57 45.3-45.3-31.7-31.8-24.4-24.4-56.2 56.2 45.3 45.3z m0 0M611.3 139.6c-31.5-3.2-85.9-5.3-126.5-41.1-29.8-26.4-44.1-29.8-49.5-29.8-1.9 0-2.8 0.5-2.8 0.5s-0.4-0.5-1.7-0.5c-3.7 0-14.5 3.4-44.4 29.8-40.6 35.8-88.7 37.9-120.2 41.1-31.5 3.3-30.4 16-38.3 51.8-7.9 35.8-36.9 45.4-28.4 54 5.7 5.5 28.4 25.9 43.6 39.3 16.4-11.7 37.8-20.9 63.3-27.7 37.5-9.9 83.2-14.8 133.2-14.8 51 0 97.5 5 135.3 15.4 21.2 5.8 39.7 13.2 54.7 22.5 16.8-13.1 37.9-29.8 42.8-34.8 8.6-8.6-16.8-18.2-24.7-53.9-7.8-35.8-5-48.6-36.4-51.8z m0 0M607.8 303.6v-6.5s5-3.9 12.1-9.3c-8.8-5.2-19-9.6-30.4-13.2C550.4 262 497.3 258 439.7 258c-56.6 0-109 3.9-147.9 16-15.6 4.8-29.1 10.9-39.7 18.6 3.1 2.8 5 4.4 5 4.4v27.2c2.8-1.6 5.8-3.2 8.8-4.7 42.1-21.3 103.8-34.9 173.9-34.9 66.9 0 126.2 12.4 168.1 32.1l-0.1-13.1z m0 0M261.6 341.3c29.5 57.4 120.1 63.4 156 63.4 9.2 0 14.8-0.4 14.8-0.4s5.6 0.4 14.8 0.4c37.2 0 133-6.5 158.9-69.8-39.9-20.2-100.2-34.5-166.4-34.5-73 0-138.9 17.4-178.1 40.9z m0 0M745.6 561.5l-0.1 21.7h63.7l0.1-21.7c14.5-11 21.3-26.3 21.3-42.2 0-28.4-24.8-53.1-53.1-53.1-29.3 0-53.1 23.8-53.1 53.1-0.1 16 6.7 31.2 21.2 42.2z m25.5-48.6c4.1-4.1 10.9-4.1 15 0s4.1 10.9 0 15-10.9 4.1-15 0c-4.1-4.2-4.1-10.9 0-15zM958.4 707.6l-42.5-63.7c-4.4-6.4-13.5-6.2-17.7 0l-42.5 63.7c-4.7 7 0.3 16.5 8.8 16.5h10.2c-3.7 46.7-32 70.4-66 89.6l-0.3-124.3h-63.7l0.2 122.8c-36.8-21.3-60.1-45.6-63.3-88.1H692c8.5 0 13.5-9.5 8.8-16.5l-42.5-63.7c-4.3-6.4-13.5-6.3-17.7 0l-42.5 63.7c-4.7 7 0.3 16.5 8.8 16.5h10.7c0.7 90.6 47.3 123.8 101.3 162.2 16.6 11.8 33.8 24 52.5 40 4 3.4 11.1 2.2 15.1-1.2 17.2-14.7 34.3-26.9 50.9-38.7C891.6 848 938.3 814.9 939 724l10.5 0.1c8.5 0 13.6-9.5 8.9-16.5zM732.7 668.2h85c17.6 0 31.9-14.3 31.9-31.9-0.1-17.1-14.9-31.9-31.9-31.9h-85c-8.5 0-16.5 3.3-22.5 9.3-6 6-9.3 14-9.3 22.5 0 8.8 3.6 16.8 9.4 22.5 5.6 5.9 13.6 9.5 22.4 9.5zM567 608.5l-91 62.8 30.2 30.3 8 8-46.1 46.1 39 49.1 4.5 5.7-3.2 6.4L456 921.8l243.1 4.4c-7.4-5.5-14.8-10.7-22-15.8-35.6-25.3-68.4-48.7-90.5-83.2h-11.9V813h3.8c-12.3-24.3-19.8-54-20.1-92.6h-12.5c-10 0-15.8-11.1-10.4-19.3l49.7-74.6M791.7 927.8l2.8 0.1v-2.1c-0.9 0.7-1.9 1.3-2.8 2z" /></svg>