<?xml version="1.0" standalone="no"?><!DOCTYPE svg PUBLIC "-//W3C//DTD SVG 1.1//EN" "http://www.w3.org/Graphics/SVG/1.1/DTD/svg11.dtd"><svg class="icon" width="200px" height="200.00px" viewBox="0 0 1024 1024" version="1.1" xmlns="http://www.w3.org/2000/svg"><path fill="#ffffff" d="M523.2 510.2H164.1v-92.3c0-7.3 5.9-13.2 13.2-13.2h285c5 0 9.6 2.8 11.8 7.3l49.1 98.2zM322.4 272.8v-52.7h-92.3v52.7h92.3z m-92.3 26.4v92.3h92.3v-92.3h-92.3z m727.5 245.6l-65.6 119C845.6 748 757.1 800.2 661 800.2H198.7c-28.4 0-53.6-18.2-62.5-45.1L64.7 540.7c-2.8-8.5 3.5-17.4 12.5-17.4h870.2c11 0 17.2 12.9 10.2 21.5z m-669.5 91.9c0-14.1-11.4-25.6-25.6-25.6-14.1 0-25.6 11.5-25.6 25.6 0 14.1 11.5 25.6 25.6 25.6 14.2 0 25.6-11.5 25.6-25.6z m105.5 0c0-14.1-11.5-25.6-25.6-25.6-14.1 0-25.6 11.5-25.6 25.6 0 14.1 11.4 25.6 25.6 25.6 14.1 0 25.6-11.5 25.6-25.6z m105.4 0c0-14.1-11.4-25.6-25.6-25.6-14.1 0-25.6 11.5-25.6 25.6 0 14.1 11.5 25.6 25.6 25.6 14.2 0 25.6-11.5 25.6-25.6z m0 0" /></svg>