<?xml version="1.0" standalone="no"?><!DOCTYPE svg PUBLIC "-//W3C//DTD SVG 1.1//EN" "http://www.w3.org/Graphics/SVG/1.1/DTD/svg11.dtd"><svg class="icon" width="200px" height="200.00px" viewBox="0 0 1024 1024" version="1.1" xmlns="http://www.w3.org/2000/svg"><path fill="#ffffff" d="M328.7 689.3h-97.6M700.9 689.3h-62.3M119.1 689.3H63.6l64.2 186.2h701l130.3-186.2H854.2M256 384.3c41.3 0 74.8-33.5 74.8-74.8s-62.9-89-74.8-158c-11.6 69-74.8 116.7-74.8 158s33.6 74.8 74.8 74.8zM248 678.2v-70.5h7.2l20.8-41.5H108l20.8 41.5h7.2v70.5M637 677.4V518.7h-45.2v-48.3h-81.4V324.8h-41.9v145.6h-14.4v48.3h-127v158.7M869.2 677.4v-83h-38.3v-65.8h-25.3v-152h-26.1v152h-25.3v65.8h-38.3v83" /></svg>