<?xml version="1.0" standalone="no"?><!DOCTYPE svg PUBLIC "-//W3C//DTD SVG 1.1//EN" "http://www.w3.org/Graphics/SVG/1.1/DTD/svg11.dtd"><svg class="icon" width="200px" height="200.00px" viewBox="0 0 1024 1024" version="1.1" xmlns="http://www.w3.org/2000/svg"><path fill="#ffffff" d="M960.4 569.4L854.6 789.9c-13.2 25.7-39.7 41.8-68.6 41.8H162.1c-11.5 0-19-12.1-13.8-22.4l0.3-0.5c8.5-16.8 3.4-37.2-11.8-48.1l-0.9-0.6c-35.4-25.3-56.5-66.2-56.5-109.8v-50h555.4v-0.3c0-16.9 13.7-30.5 30.5-30.5h295.1zM604 384.2H496c-8.5 0-15.4 6.9-15.4 15.4v169.7c0 8.5 6.9 15.4 15.4 15.4h108c8.5 0 15.4-6.9 15.4-15.4V399.7c0-8.6-6.9-15.5-15.4-15.5zM789.1 446H665.7c-8.5 0-15.4 6.9-15.4 15.4v61.7c0 8.5 6.9 15.4 15.4 15.4h123.4c8.5 0 15.4-6.9 15.4-15.4v-61.7c0.1-8.5-6.8-15.4-15.4-15.4zM310.9 584.8h123.4c8.5 0 15.4-6.9 15.4-15.4V446c0-8.5-6.9-15.4-15.4-15.4H310.9c-8.5 0-15.4 6.9-15.4 15.4v123.4c0 8.5 6.9 15.4 15.4 15.4zM303 353.4l-38.4 30.9v200.6H110.3V384.2H64v-30.9h108v-44.7h-39.9v-18H172v-91.5h15.4v91.5h39.9v18h-39.9v44.7H303z m-66.3 126.9h-50.2v46.1h50.2v-46.1z m0-73.8h-50.2v46.1h50.2v-46.1z m0 0" /></svg>