<?xml version="1.0" standalone="no"?><!DOCTYPE svg PUBLIC "-//W3C//DTD SVG 1.1//EN" "http://www.w3.org/Graphics/SVG/1.1/DTD/svg11.dtd"><svg class="icon" width="200px" height="200.00px" viewBox="0 0 1024 1024" version="1.1" xmlns="http://www.w3.org/2000/svg"><path fill="#ffffff" d="M928 857.9v-53c0-36.1-21.1-57.2-57.2-57.2H511.4c-48.5 0-73.5 23-73.5 57.2v68.9c0 35.7 23.9 53.6 73.5 53.6h359.4c36.1 0 57.2-24 57.2-69.5z m-65.4 4.1H503.3v-49h359.3v49z m0 0M650.3 371.9v156.4l20.8 56h-35L294.4 108.2l-75.3 45.4 6.5 11.4v437.3l-9 1.5-7.3 0.6v1c-65 14.1-111.6 73.1-111.6 142.9 0 80.7 66.7 146.5 148.5 146.5 80.5 0 143.5-64.4 143.5-146.5 0-78.2-53.7-136.9-131.4-145.3V224.4l16.4 30.8 16.3 30.9 196 377.3v19h65.3V715h245v-32.6h98V371.9h-245zM288.8 238.1l-28.2-53.5 44-28.9-15.8 82.4zM327 189l31.4 54.4-50.6 32.6 19.2-87z m34 172.1l-29-53.9 47.6-30.9-18.6 84.8z m38.8-57.2l35.1 51.3-52.8 33.8 17.7-85.1zM394.4 428l59-40.4-33.7 90-25.3-49.6z m82.4-15.4l32.2 44.3 0.2 0.3-66.7 43.4 34.3-88z m4.9 170.8l-28.5-50.3 70.7-50.5-42.2 100.8z m22.2 35.6l48.4-104.2 39.3 53.6-87.7 50.6zM830 535.3H715.6v-98H830v98z m0 0" /></svg>