<?xml version="1.0" standalone="no"?><!DOCTYPE svg PUBLIC "-//W3C//DTD SVG 1.1//EN" "http://www.w3.org/Graphics/SVG/1.1/DTD/svg11.dtd"><svg class="icon" width="200px" height="200.00px" viewBox="0 0 1024 1024" version="1.1" xmlns="http://www.w3.org/2000/svg"><path fill="#ffffff" d="M819.4 848c-1.8-1.3 29-29.8 27.1-31.1 55.3-86.4 104.4-216.5 106.7-222.6l6.8-18.2-47.1-47.1-17.7 5.9c-0.8 0.3-35.7 11.7-92.8 24.4l-187-187H290.9V171H69.5v181.2h161v241.5H64L106.4 848M731 573.4c-58.4 10-128.5 18.5-203.9 20.1-12.5-35-46-60.1-85.3-60.1-23.2 0-44.3 8.8-60.4 23.1-16-14.4-37.2-23.1-60.4-23.1-10.6 0-20.7 1.8-30.2 5.2V432.7h299.5L731 573.4z m-412.4 20.5c18.6-1.5 34 14 32.6 32.6-1.2 14.6-13 26.5-27.6 27.6-18.6 1.5-34-14-32.6-32.6 1.1-14.6 13-26.5 27.6-27.6z m120.8 0c18.6-1.5 34 14 32.6 32.6-1.2 14.6-13 26.5-27.6 27.6-18.6 1.5-34-14-32.6-32.6 1.1-14.6 12.9-26.5 27.6-27.6z" /></svg>