<?xml version="1.0" standalone="no"?><!DOCTYPE svg PUBLIC "-//W3C//DTD SVG 1.1//EN" "http://www.w3.org/Graphics/SVG/1.1/DTD/svg11.dtd"><svg class="icon" width="200px" height="200.00px" viewBox="0 0 1024 1024" version="1.1" xmlns="http://www.w3.org/2000/svg"><path fill="#ffffff" d="M857.7 890h-37.3V446c0-18.6-16.6-35.3-35.3-35.3h-72.6c-16.6-76.8-83-134.8-168.1-149.3v-27.1h118.2c18.7 0 35.3-14.5 35.3-35.3v-76.8c0-18.6-16.6-35.2-35.3-35.2H542.5c-4.1-12.5-16.6-22.8-33.2-22.8-18.6 0-35.3 16.6-35.3 35.2v161.9c-85.1 12.3-153.6 72.5-168.1 149.3h-72.6c-18.6 0-35.2 16.6-35.2 35.3v444h-33.2c-18.6 0-35.2 14.5-35.2 35.2 0 20.8 16.6 35.3 35.2 35.3H860c18.6 0 35.3-16.5 35.3-35.3-0.2-18.5-16.8-35.1-37.6-35.1zM750 481.2v78.9H635.8v-78.9H750zM390.2 326.4c12.5 0 19.2 5.4 24.5 9.8 4.7 3.9 8.5 6.9 16.4 6.9 7.9 0 11.7-3 16.4-6.9 5.4-4.4 12-9.8 24.5-9.8s19.2 5.4 24.5 9.8c4.7 3.9 8.5 6.9 16.4 6.9s11.7-3 16.4-6.9c5.3-4.4 12-9.8 24.5-9.8s19.2 5.4 24.5 9.8c4.7 3.9 8.5 6.9 16.4 6.9 7.9 0 11.7-3 16.4-6.9 5.3-4.4 12-9.8 24.5-9.8v12.9c-7.9 0-11.7 3-16.4 6.9-5.3 4.4-12 9.8-24.5 9.8s-19.2-5.4-24.5-9.8c-4.7-3.9-8.5-6.9-16.4-6.9-7.9 0-11.7 3-16.4 6.9-5.3 4.4-12 9.8-24.5 9.8s-19.2-5.4-24.5-9.8c-4.7-3.9-8.5-6.9-16.4-6.9-7.9 0-11.7 3-16.4 6.9-5.3 4.4-12 9.8-24.5 9.8s-19.2-5.4-24.5-9.8c-4.7-3.9-8.5-6.9-16.4-6.9v-12.9z m0 28.3c12.5 0 19.2 5.4 24.5 9.8 4.7 3.9 8.5 6.9 16.4 6.9 7.9 0 11.7-3 16.4-6.9 5.4-4.4 12-9.8 24.5-9.8s19.2 5.4 24.5 9.8c4.7 3.9 8.5 6.9 16.4 6.9s11.7-3 16.4-6.9c5.3-4.4 12-9.8 24.5-9.8s19.2 5.4 24.5 9.8c4.7 3.9 8.5 6.9 16.4 6.9 7.9 0 11.7-3 16.4-6.9 5.3-4.4 12-9.8 24.5-9.8v12.9c-7.9 0-11.7 3-16.4 6.9-5.3 4.4-12 9.8-24.5 9.8s-19.2-5.4-24.5-9.8c-4.7-3.9-8.5-6.9-16.4-6.9-7.9 0-11.7 3-16.4 6.9-5.3 4.4-12 9.8-24.5 9.8s-19.2-5.4-24.5-9.8c-4.7-3.9-8.5-6.9-16.4-6.9-7.9 0-11.7 3-16.4 6.9-5.3 4.4-12 9.8-24.5 9.8s-19.2-5.4-24.5-9.8c-4.7-3.9-8.5-6.9-16.4-6.9v-12.9z m-3.3 508.4H272.7v-78.8h114.2v78.8z m0-149.5H272.7v-85h114.2v85z m0-153.5H272.7v-78.9h114.2v78.9z m180.4 303h-112v-78.8h112v78.8z m0-149.5h-112v-85h112v85z m0-153.5h-112v-78.9h112v78.9zM594.9 411c-12.5 0-19.2-5.4-24.5-9.8-4.7-3.9-8.5-6.9-16.4-6.9-7.9 0-11.7 3-16.4 6.9-5.3 4.4-12 9.8-24.5 9.8s-19.2-5.4-24.5-9.8c-4.7-3.9-8.5-6.9-16.4-6.9-7.9 0-11.7 3-16.4 6.9-5.3 4.4-12 9.8-24.5 9.8s-19.2-5.4-24.5-9.8c-4.7-3.9-8.5-6.9-16.4-6.9v-12.9c12.5 0 19.2 5.4 24.5 9.8 4.7 3.9 8.5 6.9 16.4 6.9 7.9 0 11.7-3 16.4-6.9 5.4-4.4 12-9.8 24.5-9.8s19.2 5.4 24.5 9.8c4.7 3.9 8.5 6.9 16.4 6.9s11.7-3 16.4-6.9c5.3-4.4 12-9.8 24.5-9.8s19.2 5.4 24.5 9.8c4.7 3.9 8.5 6.9 16.4 6.9 7.9 0 11.7-3 16.4-6.9 5.3-4.4 12-9.8 24.5-9.8v12.9c-7.9 0-11.7 3-16.4 6.9-5.4 4.3-12 9.8-24.5 9.8zM750 863.1H635.8v-78.8H750v78.8zM635.8 713.6v-85H750v85H635.8z" /></svg>