<?xml version="1.0" standalone="no"?><!DOCTYPE svg PUBLIC "-//W3C//DTD SVG 1.1//EN" "http://www.w3.org/Graphics/SVG/1.1/DTD/svg11.dtd"><svg class="icon" width="200px" height="200.00px" viewBox="0 0 1024 1024" version="1.1" xmlns="http://www.w3.org/2000/svg"><path fill="#ffffff" d="M416 159.6c63.5-9.5 128.1-9.5 191.6 0 44.7 8.9 89.3 16.1 131.3 27.7 31.2 8 56.2 31.4 66.1 62.1 18.2 51.2 37.2 102 57.2 152.3 3.6 8.5 14.3 21 20.5 20.1 35.4-6 69.1 17.4 75.9 52.7 2.3 9.1 2.3 18.6 0 27.7L907.7 516c3.2 17.7 5.2 35.6 6.3 53.6V817c-0.6 15-5.9 29.4-15.2 41.1-47.1 9.1-95.5 10-142.9 2.7-33.1-21-12.5-56.3-23.2-84.9H298.5c-8.5 30.4-13.4 81.3-23.2 84.9-48.5 8.5-98 8.5-146.5 0a80.086 80.086 0 0 1-16.1-47.3C110 777.8 110 743.8 110 709c0-64.8 0-129.5 2.7-194.7l-47.3-12.5c-1.6-7.2-1.6-14.7 0-21.9 13.4-35.7 31.3-63.4 77.3-59.4 5.4 0 15.6-10.7 18.8-18.8 17.1-39.8 32-80.5 44.7-121.9 17.2-61.2 70.6-105.2 134-110.3 24.6-4.5 50-7.6 74.6-11.6l1.2 1.7z m-197.4 276c192.6 40.8 391.6 40.8 584.2 0-16.5-49.6-33.1-93.8-44.7-138.5C751 262 719.8 237 684 237.8c-92.5-4-185.4-7.1-277.8-8-30.2 1.2-60.2 5.8-89.3 13.8-13.4 2.8-25.2 10.8-32.6 22.3-25.1 54-43.8 109.9-65.7 169.7z m38 210.8c16 0.9 32 0 47.8-2.7 12.3-2.8 22.9-10.8 29-21.9 2.2-6.7-8-23.2-17-27.2-36.3-17-73.6-31.9-111.7-44.7-18.8-6.3-40.2-4.9-44.7 21.4-8.9 38.9 0 60.3 29 66.5 22.8 4.5 44.7 5.4 69.7 7.6l-2.1 1z m514.9 0c23.5-1.7 46.9-4.7 70.1-8.9 33.5-7.6 26.4-34.8 25.5-58.5-0.9-23.7-13.4-34.8-31.7-29.5-45.9 13.6-90.6 30.7-134 50.9-19.7 9.4-12.5 35.3 9.8 40.2 20 3 40.1 4.8 60.3 5.4v0.4z" /></svg>