<?xml version="1.0" standalone="no"?><!DOCTYPE svg PUBLIC "-//W3C//DTD SVG 1.1//EN" "http://www.w3.org/Graphics/SVG/1.1/DTD/svg11.dtd"><svg class="icon" width="200px" height="200.00px" viewBox="0 0 1024 1024" version="1.1" xmlns="http://www.w3.org/2000/svg"><path fill="#ffffff" d="M946.1 795.8c-15.7-11.7-37.8-8.4-49.6 7.3-0.4 0.5-34 43.4-99.3 53l126.2-318.7c3.6-9 3.3-19.1-0.8-27.9-4-8.8-11.5-15.5-20.7-18.7L531.4 364.1c-1-0.3-2-0.4-3-0.6-1.4-0.4-2.9-0.8-4.3-0.9-1.4-0.2-2.8-0.1-4.2-0.1s-2.7 0-4.1 0.1c-1.5 0.2-2.9 0.6-4.4 0.9-1 0.2-2 0.3-2.9 0.6L138 490.7c-9.2 3.1-16.6 9.9-20.7 18.7-4.1 8.8-4.3 18.9-0.8 27.9L237 841.8c-67.7-10.9-110.8-53.1-112-54.4-13.7-13.9-36-14.2-50.1-0.6-14 13.6-14.3 36.1-0.7 50.2 3.1 3.1 76.2 76.9 191.6 78.2 57.2 0.8 101-11 139.5-21.3 33.8-9.1 63-16.9 96.3-15 38.7 2.2 74.2 12.1 111.7 22.7 47.6 13.3 96.7 27.2 157.6 27.2 119 0 179.9-80.1 182.5-83.5 11.6-15.6 8.3-37.8-7.3-49.5zM699.2 151.3c0-19.5-15.9-35.4-35.4-35.4H375.9c-19.5 0-35.4 15.9-35.4 35.4v47.3h358.7v-47.3zM511.3 324.3c1.5-0.4 2.9-0.8 4.4-0.9 1.4-0.2 2.7-0.1 4.1-0.1 1.4 0 2.8-0.1 4.2 0.1 1.5 0.2 2.9 0.6 4.3 0.9 1 0.2 2 0.3 3 0.6L822 424.2V266c0-19.5-15.9-35.4-35.4-35.4H253.1c-19.5 0-35.4 15.9-35.4 35.4v158.2l290.7-99.3c1-0.3 2-0.3 2.9-0.6z" /></svg>