<?xml version="1.0" standalone="no"?><!DOCTYPE svg PUBLIC "-//W3C//DTD SVG 1.1//EN" "http://www.w3.org/Graphics/SVG/1.1/DTD/svg11.dtd"><svg class="icon" width="200px" height="200.00px" viewBox="0 0 1024 1024" version="1.1" xmlns="http://www.w3.org/2000/svg"><path fill="#ffffff" d="M626.4 571.8l-0.1 30.6v0.3h-546v49.9s67.2 165 67.6 167.9h685.2v-2.8l128-245.9H626.4zM111.1 587.2h154.2V386.6l38.4-30.9H188.2V311h39.9v-18h-39.9v-91.6h-15.4V293h-39.9v18h39.9v44.7H64.9v30.9h46.2v200.6z m76.3-178.3h50.1v46h-50.1v-46z m0 73.7h50.1v46.1h-50.1v-46.1zM292.4 454.9h317.5v132.3H292.4zM626.4 423h317.5v132.1H626.4zM495.7 306.2H610v132.3H495.7zM359.7 364.3H474v74.1H359.7zM359.7 273.7H474v74.1H359.7zM626.4 241.8h114.3v74.1H626.4zM626.4 332.4h243.9v74.3H626.4z" /></svg>