<?xml version="1.0" standalone="no"?><!DOCTYPE svg PUBLIC "-//W3C//DTD SVG 1.1//EN" "http://www.w3.org/Graphics/SVG/1.1/DTD/svg11.dtd"><svg class="icon" width="200px" height="200.00px" viewBox="0 0 1024 1024" version="1.1" xmlns="http://www.w3.org/2000/svg"><path fill="#ffffff" d="M848.1 285.5c15.1 0 26.5-13.6 26.5-28.8v-35.6c0-15.1-11.4-26-26.5-26H666.4v109.5L513 411 359.7 304.6V195.1H179.8c-15.1 0-28.3 10.9-28.3 26v35.6c0 15.1 13.2 28.8 28.3 28.8h18.3v451.9h-18.3c-15.1 0-28.3 10.9-28.3 26V799c0 15.1 13.2 28.8 28.3 28.8h668.3c15.1 0 26.5-13.6 26.5-28.8v-35.6c0-15.1-11.4-26-26.5-26H828V285.5h20.1zM400.7 737.4V556.7H376v-43.8h271.2v43.8h-21.9v180.8H400.7zM398 283l113.7 78.1L625.3 283V87.5c0-15.1-9.6-23.8-24.7-23.8H428.3c-15.1 0-30.3 8.7-30.3 23.8V283z m44.6-106.7l47.9-7.6 22-43.2 22 43.2 47.9 7.6-34.3 34.3 7.6 47.9-43.2-22-43.2 22 7.6-47.9-34.3-34.3zM789.7 916.1c-26.8 0-39.5-10.3-55.4-23.3-18.1-14.7-40.6-33.1-82.9-33.1-42.3 0-64.8 18.3-82.9 33.1-16 13-28.6 23.3-55.4 23.3-26.8 0-39.5-10.3-55.4-23.3-18.1-14.7-40.6-33.1-82.9-33.1-42.3 0-64.8 18.4-82.9 33.1-16 13-28.6 23.3-55.4 23.3-26.9 0-39.5-10.3-55.4-23.3-18.1-14.7-40.6-33.1-82.9-33.1v43.5c26.8 0 39.5 10.3 55.4 23.3 18.1 14.7 40.6 33.1 82.9 33.1 42.3 0 64.8-18.3 82.9-33.1 16-13 28.6-23.3 55.4-23.3 26.9 0 39.5 10.3 55.4 23.3 18.1 14.7 40.6 33.1 82.9 33.1s64.8-18.3 82.9-33.1c16-13 28.6-23.3 55.4-23.3 26.9 0 39.5 10.3 55.5 23.3 18.1 14.7 40.6 33.1 82.9 33.1 42.3 0 64.8-18.3 82.9-33.1 16-13 28.6-23.3 55.4-23.3v-43.5c-42.3 0-64.8 18.4-82.9 33.1-16.1 13-28.7 23.3-55.5 23.3zM789.7 825.8c-26.8 0-39.5-10.3-55.4-23.3-18.1-14.7-40.6-33.1-82.9-33.1-42.3 0-64.8 18.3-82.9 33.1-16 13-28.6 23.3-55.4 23.3-26.8 0-39.5-10.3-55.4-23.3-18.1-14.7-40.6-33.1-82.9-33.1-42.3 0-64.8 18.4-82.9 33.1-16 13-28.6 23.3-55.4 23.3-26.9 0-39.5-10.3-55.4-23.3-18.1-14.7-40.6-33.1-82.9-33.1v43.5c26.8 0 39.5 10.3 55.4 23.3 18.1 14.7 40.6 33.1 82.9 33.1 42.3 0 64.8-18.3 82.9-33.1 16-13 28.6-23.3 55.4-23.3 26.9 0 39.5 10.3 55.4 23.3 18.1 14.7 40.6 33.1 82.9 33.1s64.8-18.3 82.9-33.1c16-13 28.6-23.3 55.4-23.3 26.9 0 39.5 10.3 55.5 23.3 18.1 14.7 40.6 33.1 82.9 33.1 42.3 0 64.8-18.3 82.9-33.1 16-13 28.6-23.3 55.4-23.3v-43.5c-42.3 0-64.8 18.4-82.9 33.1-16.1 13-28.7 23.3-55.5 23.3z" /></svg>