<?xml version="1.0" standalone="no"?><!DOCTYPE svg PUBLIC "-//W3C//DTD SVG 1.1//EN" "http://www.w3.org/Graphics/SVG/1.1/DTD/svg11.dtd"><svg class="icon" width="200px" height="200.00px" viewBox="0 0 1024 1024" version="1.1" xmlns="http://www.w3.org/2000/svg"><path fill="#ffffff" d="M960.1 696.9L854.3 917.3c-13.2 25.6-39.7 41.8-68.5 41.8H162.1c-11.5 0-19-12.1-13.8-22.4l0.3-0.5c8.5-16.7 3.4-37.2-11.8-48.1l-0.9-0.6c-35.4-25.3-56.5-66.2-56.5-109.8v-50h555.3v-0.3c0-16.9 13.7-30.5 30.5-30.5h294.9zM187.4 326.7v91.5h39.9v18h-39.9v44.7h115.5l-38.4 30.9v200.5H110.3V511.8H64v-30.9h108v-44.7h-39.9v-18H172v-91.5M186.5 607.8h50.2v46.1h-50.2zM186.5 534h50.2v46.1h-50.2zM417.9 697.4c-7.3 0-13.3 6-13.3 13.3v60.4c0 7.3 6 13.3 13.3 13.3h424.8c7.3 0 13.3-6 13.3-13.3v-60.4c0-7.3-6-13.3-13.3-13.3h-72.4l-39.2-271.7-8.6-59.3-2.8-19.6 57.5-23.8c16.4 25 34.6 50.1 55.7 76.9 3.7 4.7 10 6.3 15.5 4l48.7-20.1c5.5-2.3 8.8-7.9 8.1-13.8-10.8-91.7-29-165.1-57.1-230.9-2.9-6.7-10.6-9.9-17.3-7.1l-113.5 47c-6.7 2.8-10 10.5-7.3 17.2 8.1 20.2 17.6 40.6 28.1 60.7L450.6 376c-3.3 1.4-5.8 3.9-7.2 7.2-1.4 3.3-1.4 6.9 0 10.2l18.9 45.7c2.1 5.1 7.1 8.2 12.3 8.2 1.7 0 3.4-0.3 5.1-1l3.2-1.3v106.5h-31c-3.7 0-6.6 3-6.6 6.6v139.4h-27.4v-0.1z m91.7-263.5l112.6-46.6-5.6 38.5-39.2 271.7h-30.2V558.1c0-3.7-3-6.6-6.6-6.6h-31V433.9z m140.9-38.8l37.2 31.4-46.7 34.9 9.5-66.3z m54.6 54.7l10.7 73.9-59.3-37.7 48.6-36.2z m-8.1 96.6l-76.9 59 14.3-98.9 62.6 39.9z m-90.2 151l8-55.5 76.6 55.5h-84.6z m85.1-339l5.5 38.1-32.1-27.1 26.6-11z m48.9 338.8l-99-71.7 79.8-61.2 19.2 132.9z m-19.2-132.9" /></svg>