<?xml version="1.0" standalone="no"?><!DOCTYPE svg PUBLIC "-//W3C//DTD SVG 1.1//EN" "http://www.w3.org/Graphics/SVG/1.1/DTD/svg11.dtd"><svg class="icon" width="200px" height="200.00px" viewBox="0 0 1024 1024" version="1.1" xmlns="http://www.w3.org/2000/svg"><path fill="#ffffff" d="M63.3 524.8c0 67.3 9.9 141.1 83 177.6 2 1 4.2 1.5 6.5 1.5h672.1c4.8 0 9.2-2.3 12.1-6.2l119.5-164.3c3.3-4.5 3.8-10.6 1.2-15.6-2.6-5-7.7-8.2-13.3-8.2H78.3c-8.3 0.1-15 6.9-15 15.2zM765.2 562v-14.9c0-4.1 3.3-7.5 7.5-7.5h14.9c4.1 0 7.5 3.3 7.5 7.5V562c0 4.1-3.3 7.5-7.5 7.5h-14.9c-4.2 0-7.5-3.4-7.5-7.5z m-59.7 0v-14.9c0-4.1 3.3-7.5 7.5-7.5h14.9c4.1 0 7.5 3.3 7.5 7.5V562c0 4.1-3.3 7.5-7.5 7.5H713c-4.2 0-7.5-3.4-7.5-7.5z m-59.8 0v-14.9c0-4.1 3.3-7.5 7.5-7.5h14.9c4.1 0 7.5 3.3 7.5 7.5V562c0 4.1-3.3 7.5-7.5 7.5h-14.9c-4.1 0-7.5-3.4-7.5-7.5z m-59.7 0v-14.9c0-4.1 3.3-7.5 7.5-7.5h14.9c4.1 0 7.5 3.3 7.5 7.5V562c0 4.1-3.3 7.5-7.5 7.5h-14.9c-4.2 0-7.5-3.4-7.5-7.5z m-59.7 0v-14.9c0-4.1 3.3-7.5 7.5-7.5h14.9c4.1 0 7.5 3.3 7.5 7.5V562c0 4.1-3.3 7.5-7.5 7.5h-14.9c-4.2 0-7.5-3.4-7.5-7.5z m-59.8 0v-14.9c0-4.1 3.3-7.5 7.5-7.5h14.9c4.1 0 7.5 3.3 7.5 7.5V562c0 4.1-3.3 7.5-7.5 7.5H474c-4.1 0-7.5-3.4-7.5-7.5z m-59.7 0v-14.9c0-4.1 3.3-7.5 7.5-7.5h14.9c4.1 0 7.5 3.3 7.5 7.5V562c0 4.1-3.3 7.5-7.5 7.5h-14.9c-4.2 0-7.5-3.4-7.5-7.5z m-59.7 0v-14.9c0-4.1 3.3-7.5 7.5-7.5h14.9c4.1 0 7.5 3.3 7.5 7.5V562c0 4.1-3.3 7.5-7.5 7.5h-14.9c-4.2 0-7.5-3.4-7.5-7.5z m-59.8 0v-14.9c0-4.1 3.3-7.5 7.5-7.5h14.9c4.1 0 7.5 3.3 7.5 7.5V562c0 4.1-3.3 7.5-7.5 7.5h-14.9c-4.1 0-7.5-3.4-7.5-7.5z m-59.7 0v-14.9c0-4.1 3.3-7.5 7.5-7.5H250c4.1 0 7.5 3.3 7.5 7.5V562c0 4.1-3.3 7.5-7.5 7.5h-14.9c-4.2 0-7.5-3.4-7.5-7.5z m-59.7 0v-14.9c0-4.1 3.3-7.5 7.5-7.5h14.9c4.1 0 7.5 3.3 7.5 7.5V562c0 4.1-3.3 7.5-7.5 7.5h-14.9c-4.2 0-7.5-3.4-7.5-7.5zM200.1 369.9c2.2-5.7 7.8-9.5 13.9-9.5h58.4v-37.3c0-4.1 3.3-7.5 7.5-7.5h14.9c4.1 0 7.5 3.3 7.5 7.5v37.3H377v-37.3c0-4.1 3.3-7.5 7.5-7.5h14.9c4.1 0 7.5 3.3 7.5 7.5v37.3h74.7v-37.3c0-4.1 3.3-7.5 7.5-7.5H504c4.1 0 7.5 3.3 7.5 7.5v37.3h61.9c6.2 0 11.7 3.8 13.9 9.5L597 395c1.9 4.9-1.7 10.2-7 10.2H197.2c-5.3 0-8.9-5.3-7-10.2l9.9-25.1zM135.5 445c2.1-6 7.8-9.9 14.1-9.9h580c6.3 0 12 4 14.1 9.9l8.8 24.9c1.7 4.9-1.9 10-7 10H133.6c-5.2 0-8.8-5.1-7-10l8.9-24.9z" /></svg>