<?xml version="1.0" standalone="no"?><!DOCTYPE svg PUBLIC "-//W3C//DTD SVG 1.1//EN" "http://www.w3.org/Graphics/SVG/1.1/DTD/svg11.dtd"><svg class="icon" width="200px" height="200.00px" viewBox="0 0 1024 1024" version="1.1" xmlns="http://www.w3.org/2000/svg"><path fill="#ffffff" d="M517.1 589.1c107.3 0 194.2-86.9 194.2-194.2 0-15.6-2-30.8-5.5-45.4-1.5-0.9-2.9-1.9-4.5-2.9-30.6 71.7-133.4 79.7-177.2 79.7-7.7 0-13.2-0.2-15.3-0.4-2.2 0.1-7.6 0.4-15.3 0.4-40 0-129.4-6.7-167.9-62.7-1.6 10.2-2.7 20.6-2.7 31.3 0 107.3 87 194.2 194.2 194.2z m0 0M502.9 946.7l-54.2-108.6-3.4-6.6 4.6-5.8 40.3-50.8-39.5-39.5-8.2-8.3 43.2-43.2-89.1-61.3s9.8-6.6-118.8 43.9c-128.5 50.4-117.1 167.7-115.5 174.2 1.6 6.5-1 112.3-1 112.3l341.6-6.3z m0 0M765.2 666.5c-128.6-50.5-118.8-44-118.8-44l-94.2 65 31.3 31.3 8.3 8.3-47.8 47.7 40.3 50.8 4.6 5.8-3.3 6.6-54.2 108.5 350.2 6.3s-2.6-105.8-0.9-112.3c1.7-6.4 13.1-123.6-115.5-174z m15.7 182.3H654.3v-14.6h126.6v14.6z m0 0M505.9 773.9l-46.8 59 56.7 113.6 1.4 2.8 8.8-17.7 49.3-98.6-46.8-59 46.8-46.8-32.8-32.9-25.4-25.3-58.1 58.1 46.9 46.8z m0 0M693.8 137.5C661.2 134.2 604.9 132 563 95c-30.8-27.3-45.6-30.8-51.2-30.8-2 0-2.9 0.5-2.9 0.5s-0.4-0.5-1.7-0.5c-3.8 0-15 3.6-45.9 30.8-42 37-91.8 39.2-124.3 42.5-32.6 3.4-31.5 16.6-39.7 53.5-8.2 37-38.2 47-29.3 55.8 5.8 5.7 29.4 26.8 45.1 40.7 16.9-12.1 39.1-21.6 65.5-28.6 38.8-10.3 86.1-15.3 137.8-15.3 52.7 0 100.8 5.2 140 15.9 22 6 41.1 13.7 56.5 23.3 17.3-13.6 39.2-30.8 44.3-36 8.9-8.9-17.3-18.8-25.5-55.7-8.3-37-5.4-50.2-37.9-53.6z m0 0M690.2 307.1v-6.7s5.2-4 12.5-9.6c-9.1-5.4-19.6-9.9-31.4-13.7-40.5-12.9-95.4-17.1-154.9-17.1-58.6 0-112.7 4.1-153 16.5-16.1 5-30.1 11.3-41.1 19.3 3.2 2.9 5.2 4.6 5.2 4.6v28.1c2.9-1.6 6-3.3 9.1-4.9 43.5-22.1 107.3-36.1 179.9-36.1 69.2 0 130.5 12.8 173.9 33.2l-0.2-13.6z m0 0M332.1 346.1c30.5 59.4 124.3 65.6 161.4 65.6 9.6 0 15.3-0.4 15.3-0.4s5.8 0.4 15.3 0.4c38.5 0 137.6-6.7 164.3-72.2-41.3-20.8-103.6-35.7-172.2-35.7-75.4 0-143.6 18.1-184.1 42.3z m0 0" /></svg>