<?xml version="1.0" standalone="no"?><!DOCTYPE svg PUBLIC "-//W3C//DTD SVG 1.1//EN" "http://www.w3.org/Graphics/SVG/1.1/DTD/svg11.dtd"><svg class="icon" width="200px" height="200.00px" viewBox="0 0 1024 1024" version="1.1" xmlns="http://www.w3.org/2000/svg"><path fill="#ffffff" d="M245.7 767.8c7.7 5.3 18 5.3 25.7 0 17.9-12.4 41.6-12.4 59.5 0 7.7 5.3 18 5.3 25.7 0 17.9-12.4 41.6-12.4 59.5 0 7.7 5.3 18 5.3 25.7 0 17.9-12.4 41.6-12.4 59.5 0 7.7 5.3 18 5.3 25.7 0 17.9-12.4 41.6-12.4 59.5 0 7.7 5.3 18 5.3 25.7 0 7.2-5 15.5-8 24.2-8.9V528h-415v231c8.8 0.8 17.1 3.9 24.3 8.8z m346.3-136c3.9 0 7.7 1.6 10.5 4.3 2.8 2.8 4.3 6.6 4.3 10.5v44.5c0 8.2-6.6 14.8-14.8 14.8-8.2 0-14.8-6.6-14.8-14.8v-44.5c0-3.9 1.6-7.7 4.3-10.5 2.8-2.7 6.6-4.3 10.5-4.3z m-44.4-74.1c0-8.2 6.6-14.8 14.8-14.8 8.2 0 14.8 6.6 14.8 14.8v44.5c0 8.2-6.6 14.8-14.8 14.8-8.2 0-14.8-6.6-14.8-14.8v-44.5z m-44.5 88.9c0-8.2 6.6-14.8 14.8-14.8 8.2 0 14.8 6.6 14.8 14.8v44.5c0 8.2-6.6 14.8-14.8 14.8-8.2 0-14.8-6.6-14.8-14.8v-44.5z m-44.5-88.9c0-8.2 6.6-14.8 14.8-14.8 8.2 0 14.8 6.6 14.8 14.8v44.5c0 8.2-6.6 14.8-14.8 14.8-8.2 0-14.8-6.6-14.8-14.8v-44.5z m-44.4 88.9c0-8.2 6.6-14.8 14.8-14.8 8.2 0 14.8 6.6 14.8 14.8v44.5c0 8.2-6.6 14.8-14.8 14.8-8.2 0-14.8-6.6-14.8-14.8v-44.5z m-44.5-88.9c0-8.2 6.6-14.8 14.8-14.8 8.2 0 14.8 6.6 14.8 14.8v44.5c0 8.2-6.6 14.8-14.8 14.8-8.2 0-14.8-6.6-14.8-14.8v-44.5z m-44.4 88.9c0-8.2 6.6-14.8 14.8-14.8 8.2 0 14.8 6.6 14.8 14.8v44.5c0 8.2-6.6 14.8-14.8 14.8-8.2 0-14.8-6.6-14.8-14.8v-44.5z m-44.5-88.9c0-8.2 6.6-14.8 14.8-14.8s14.8 6.6 14.8 14.8v44.5c0 8.2-6.6 14.8-14.8 14.8s-14.8-6.6-14.8-14.8v-44.5z m-29.7 88.9c0-8.2 6.6-14.8 14.8-14.8s14.8 6.6 14.8 14.8v44.5c0 8.2-6.6 14.8-14.8 14.8s-14.8-6.6-14.8-14.8v-44.5zM666.1 394.7c0-131-106.2-237.1-237.1-237.1S191.9 263.7 191.9 394.7c0 36 8.2 71.5 24.1 103.7h426c15.9-32.3 24.2-67.8 24.1-103.7zM142.5 750.4h-29.6c-8.2 0-14.8 6.6-14.8 14.8v148.2c0 8.2 6.6 14.8 14.8 14.8h44.5v-163c-0.1-8.2-6.7-14.8-14.9-14.8zM191.9 516.4c-57.8-112.2-29.1-249.7 68.9-329.3s238.4-79.6 336.4 0 126.8 217 68.9 329.3V572c77.2-103.2 78.8-244.5 4-349.4S461.3 73 338.5 112.3c-122.7 39.3-206 153.4-206 282.3-0.1 64 20.7 126.3 59.3 177.3v-55.5zM798.4 792.2a52.234 52.234 0 0 1-59.5 0c-7.7-5.3-18-5.3-25.7 0a52.234 52.234 0 0 1-59.5 0c-7.7-5.3-18-5.3-25.7 0a52.234 52.234 0 0 1-59.5 0c-7.7-5.3-18-5.3-25.7 0a52.234 52.234 0 0 1-59.5 0c-7.7-5.3-18-5.3-25.7 0a52.234 52.234 0 0 1-59.5 0c-7.7-5.3-18-5.3-25.7 0a52.234 52.234 0 0 1-59.5 0c-7.7-5.3-18-5.3-25.7 0a52.234 52.234 0 0 1-59.5 0c-7.7-5.3-18-5.3-25.7 0l-15 10.4V869h652.1v-66.4l-15-10.4c-7.7-5.4-17.9-5.4-25.7 0zM186.9 898.6H839v29.6H186.9zM913.2 750.4h-29.6c-8.2 0-14.8 6.6-14.8 14.8v163h44.5c8.2 0 14.8-6.6 14.8-14.8V765.2c-0.1-8.2-6.7-14.8-14.9-14.8zM918.3 615.8h-11.7c-5.3 0-11-4.2-12.6-9.3l-6.7-16.3c-2.5-4.7-1.5-11.6 2.3-15.4l8.3-8.3c3.8-3.8 3.8-10 0-13.7l-13.7-13.7c-3.8-3.8-10-3.8-13.7 0l-8.3 8.3c-3.8 3.8-10.7 4.8-15.4 2.3l-16.3-6.7c-5.1-1.6-9.2-7.2-9.2-12.6v-11.6c0-5.3-4.4-9.7-9.7-9.7h-19.4c-5.3 0-9.7 4.4-9.7 9.7v11.6c0 5.4-4.2 11-9.3 12.6l-16.3 6.7c-4.7 2.5-11.6 1.5-15.4-2.3l-8.3-8.3c-3.8-3.8-9.9-3.8-13.7 0l-13.7 13.7c-3.8 3.8-3.8 10 0 13.7l8.3 8.3c3.8 3.8 4.8 10.7 2.3 15.4l-6.7 16.3c-1.6 5.1-7.3 9.2-12.6 9.2h-11.6c-5.3 0-9.7 4.4-9.7 9.7v19.4c0 5.3 4.4 9.7 9.7 9.7H697c5.3 0 11 4.2 12.6 9.3l6.7 16.3c2.5 4.7 1.5 11.7-2.3 15.4l-8.3 8.3c-3.8 3.8-3.8 10 0 13.7l13.7 13.7c3.8 3.8 9.9 3.8 13.7 0l8.3-8.3c3.7-3.8 10.7-4.8 15.4-2.2l16.3 6.7c5.1 1.6 9.3 7.2 9.3 12.6v11.6c0 5.3 4.4 9.7 9.7 9.7h19.4c5.3 0 9.7-4.4 9.7-9.7V740c0-5.3 4.2-11 9.2-12.6l16.3-6.7c4.7-2.6 11.6-1.5 15.4 2.2l8.3 8.3c3.8 3.8 10 3.8 13.7 0l13.7-13.7c3.8-3.8 3.8-10 0-13.7l-8.3-8.3c-3.8-3.7-4.8-10.7-2.3-15.4l6.7-16.3c1.6-5.1 7.3-9.3 12.6-9.3h11.7c5.3 0 9.7-4.4 9.7-9.7v-19.4c0.1-5.3-4.3-9.6-9.6-9.6z m-116.5 67.9c-26.8 0-48.5-21.7-48.5-48.5s21.7-48.5 48.5-48.5 48.5 21.7 48.5 48.5c0.1 26.8-21.7 48.5-48.5 48.5z" /></svg>